<svg xmlns="http://www.w3.org/2000/svg" width="1438" height="1101" viewBox="0 0 1438 1101"><defs><linearGradient id="a" x1="25.546%" x2="80.205%" y1="21.264%" y2="73.334%"><stop offset="0%" stop-color="#FF8052"/><stop offset="100%" stop-color="#FF5252"/></linearGradient></defs><g fill="none" fill-rule="evenodd" opacity=".151"><path fill="#E34B4B" d="M738.538 104.756v-57.67l.396-.549 85.401-28.412 25.562-8.504 7.298-2.26c2.485-.655 4.955-1.363 7.453-1.965C877.482 2.3 890.528.594 903.64.11c5.368-.2 10.745-.088 16.124.02 7.212.423 9.053.43 16.242 1.263 23.338 2.705 47.3 9.236 66.985 22.555 3.352 2.268 6.578 4.749 9.59 7.452 1.7 1.527 6.522 6.384 8.168 8.026 26.137 26.085 52.267 52.165 78.386 78.236l19.065 19.029 6.063 6.049 19.062 19.028 4.654 4.644 19.058 19.028 1.84 1.832 19.058 19.028 27.718 27.655 3.995 3.987c3.01 3.126 6.101 6.188 9.042 9.378 7.711 8.334 14.936 17.116 21.084 26.512 4.805 7.34 5.152 8.58 8.961 16.229l2.953 7.678.023.061 1.91 7.312.023.073.88 6.99.012.073v105.479l40.21 6.209 11.127 2.14c9.506 2.223 12.157 2.689 21.478 5.479 25.402 7.603 50.283 18.98 69.885 35.892 3.184 2.753 9.158 8.528 12.03 11.696 1.736 1.931 3.311 4.008 4.967 6.011l4.26 6.22 3.416 6.246.023.054 2.64 6.349.023.061 1.864 6.437.023.066 1.089 6.51v.069l.312 6.577v214.682l-.486 6.628-.012.067-1.262 6.63-.011.063-2.084 6.698-2.872 6.685-3.589 6.517c-1.424 2.119-2.767 4.299-4.284 6.355-8.463 11.47-19.428 21.077-31.145 29.127-10.93 7.513-22.566 13.693-34.688 18.919-3.23 1.395-6.484 2.758-9.795 3.973-.104.042-13.002 4.329-15.897 5.288-60.738 20.209-121.477 40.421-182.227 60.63l-25.557 8.503-4.788 1.59-76.674 25.512-10.44 3.472c-105.847 35.213-211.615 70.408-318.106 105.835l-25.559 8.503-127.786 42.514-26.66 8.87-.184-.55-.409.41c-14.5-14.47-28.998-28.943-43.497-43.414l-19.065-19.029-19.064-19.025-19.062-19.029-19.065-19.025-19.062-19.029-6.409-6.394-47.516-47.43-19.065-19.025-19.062-19.03-19.064-19.024c-25.419-25.37-50.837-50.74-76.255-76.112l-19.064-19.025-19.063-19.03-19.064-19.024-19.062-19.029-19.065-19.028L92.8 660.936l-19.062-19.029-19.065-19.026-19.062-19.028-19.1-19.065-7.335-8.81-.058-.084-5.14-9.063-.047-.107-2.997-9.2-.026-.123L0 548.12V333.47l.004-.07 1.134-9.14.028-.119 3.117-8.939.047-.102 5.05-8.626.057-.08 6.93-8.206.062-.061 8.76-7.663.06-.046 10.531-7.01.058-.035 12.256-6.248.054-.025 13.939-5.377 1.489-.495 4.172-1.39 14.898-4.955 9.952-3.311 11.108-3.698 11.882-3.952 47.514-15.806 9.955-3.313.591.14 5.473 5.464 37.14 37.068V222.27l.395-.549c55.7-18.533 111.4-37.061 167.099-55.593l25.559-8.503 25.558-8.506.593.14 6.253 6.246 19.066 19.025 18.073 18.042v-57.669l.394-.548 11.242-3.813 25.508-8.656c17.005-5.77 34.009-11.538 51.013-17.309l25.508-8.652 25.508-8.657 25.507-8.654 25.505-8.654 25.507-8.656.595.139 6.255 6.246 19.064 19.025 18.075 18.043z"/><path fill="#D24040" stroke="#D24040" d="M1436.726 533.971l-.602 3.13-.011.063-2.084 6.7-2.872 6.685-3.589 6.516c-1.424 2.118-2.767 4.298-4.284 6.354-8.405 11.389-19.3 20.99-31.145 29.127-8.081 5.554-16.568 10.377-25.31 14.628-8.243 4.006-10.628 4.804-19.173 8.265a1929804.94 1929804.94 0 0 1-198.124 65.917l-25.557 8.503-4.788 1.592-25.559 8.506-51.115 17.005-5.8 1.928c-87.216 29.003-174.26 57.975-261.191 86.898l-35.996 11.978-25.559 8.503-25.559 8.502-25.556 8.504-25.556 8.505-11.122 3.698-19.226 6.399c-13.874 4.616-27.749 9.23-41.623 13.844l-25.556 8.502-5.412 1.8v213.428l24.795-8.25 25.56-8.505c15.812-5.262 31.62-10.52 47.427-15.777l25.558-8.503 25.557-8.503 4.788-1.592 112.674-37.486c68.477-22.783 136.955-45.565 205.432-68.349l25.56-8.502 10.44-3.472 25.558-8.506L1118.82 905l4.79-1.592c41.343-13.757 82.746-27.53 124.103-41.289 29.547-9.834 59.164-19.69 88.734-29.522 10.41-3.463 10.733-3.313 20.552-7.547 17.506-7.552 34.224-17.135 48.64-29.755 13.51-11.83 24.996-26.39 29.35-43.795 1.459-5.806 1.308-7.204 1.736-13.118V533.971z"/><path fill="#E34B4B" stroke="#E34B4B" d="M1.158 343.566v204.526c.817 8.33.354 10.36 3.856 18.218 3.087 6.927 7.16 12.226 12.37 17.717 6.172 6.507 12.697 12.671 19.045 19.007l19.062 19.029 19.065 19.025 19.062 19.028 19.065 19.026 19.065 19.029 19.061 19.028 19.066 19.026 19.062 19.029 19.065 19.025 19.062 19.028 38.127 38.055 19.064 19.028 19.065 19.026 19.062 19.028 19.065 19.025a393549.44 393549.44 0 0 0 38.127 38.057l9.39 9.373 6.407 6.394 19.062 19.029 19.065 19.026 19.062 19.028 19.065 19.026 57.192 57.083 4.382 4.373V885.845l-5.2-5.19c-12.71-12.683-25.42-25.368-38.127-38.053l-19.065-19.029-19.064-19.026-19.062-19.028-19.065-19.026-19.062-19.029-6.409-6.393c-15.837-15.81-31.677-31.618-47.516-47.427l-19.065-19.029-19.062-19.028-19.064-19.026-76.255-76.11-19.064-19.026-19.063-19.029-19.064-19.026-19.062-19.028-19.065-19.025-38.127-38.057-19.065-19.026-19.062-19.029-19.1-19.065-7.335-8.81-.058-.085-5.14-9.063-.047-.106-2.773-8.51z"/><path fill="#D24040" stroke="#D24040" d="M217.418 223.655v54.977l99.526 99.336 19.065 19.029 4.436 4.43 19.064 19.025 76.255 76.11 19.064 19.028 19.062 19.028 19.065 19.025 19.062 19.029 19.065 19.026 19.062 19.028 19.064 19.026c12.71 12.686 25.419 25.37 38.128 38.057l18.812 18.773c24.52-8.156 49.038-16.314 73.557-24.472l25.56-8.503 18.825-6.264 55.578-18.491v-114.19c-16.08-2.483-32.166-4.967-48.255-7.453l-26.62-4.11-26.617-4.112c-9.732-1.503-19.464-3.003-29.196-4.51l-26.619-4.11-26.62-4.112-50.404-7.784-26.62-4.11-26.621-4.112-26.617-4.11-26.62-4.114c-23.534-23.092-46.754-46.035-69.982-68.98l-19.158-18.928-19.162-18.93-19.16-18.93-19.161-18.93-19.162-18.928-57.48-56.79-18.176-17.954z"/><path fill="#E34B4B" stroke="#E34B4B" d="M672.223 328.14v57.428l33.114 33.05 19.065 19.029 19.061 19.028 19.066 19.026 19.062 19.029 19.065 19.025.17.41v114.301l204.01-67.873 25.56-8.503 3.68-1.224-7.023-1.086-48.368-7.469-2.039-.315-26.62-4.113-26.617-4.11-26.62-4.112-26.62-4.11-.321-.162c-34.407-34.335-68.853-68.723-103.294-103.1l-19.065-19.028-19.064-19.025-19.063-19.028-19.065-19.029-18.074-18.04zM1263.38 324.57l-.14.761-.023.095-2.2 6-.336.738-.949 2.024-1.459 3.142-1.899 4.077c-4.307 9.276-8.625 18.57-12.944 27.863l-2.686 5.759-2.501 5.387-2.188 4.707v28.205l1.366.21 25.958 4.01V324.57z"/><path fill="#D24040" stroke="#D24040" d="M739.696 48.482v57.43l2.464 2.455c12.71 12.685 25.418 25.372 38.128 38.058l19.064 19.025 19.062 19.028 19.065 19.026 19.062 19.029c21.842 21.798 43.652 43.566 65.45 65.327l19.064 19.025 19.062 19.028 19.065 19.026.17.41v28.333l4.226.652 26.62 4.11 26.62 4.112 26.618 4.11 26.62 4.114 26.62 4.11 26.62 4.112c13.011 2.009 26.023 4.017 39.036 6.028l26.618 4.11 25.947 4.01V385.49c-17.715-2.733-35.417-5.468-53.109-8.2l-26.616-4.111-26.616-4.112-26.62-4.11-26.621-4.112-26.62-4.11-.32-.164-23.712-23.666-19.065-19.028-19.062-19.029-19.064-19.025-76.254-76.109-19.065-19.028-19.061-19.029-19.066-19.026-19.062-19.028-19.065-19.025-38.126-38.055-18.077-18.042z"/><path fill="#D24040" stroke="#D24040" d="M480.015 136.298v57.428c6.95 6.936 13.897 13.872 20.845 20.808l19.065 19.025 19.062 19.028 19.066 19.027 38.127 38.056 18.682 18.646 19.064 19.026 19.063 19.028 18.077 18.042v-57.669l.666-.571c2.338.36 4.677.72 7.014 1.082 17.747 2.74 35.494 5.48 53.241 8.223l26.617 4.11 43.392 6.704 26.619 4.11 17.149 2.647 26.62 4.112 26.62 4.112 26.618 4.112 26.62 4.11 25.952 4.009v-27.657l-24.208-3.738-26.62-4.114-26.618-4.11-26.62-4.11-26.62-4.112-26.62-4.11-26.621-4.113-50.403-7.784-26.62-4.112-26.62-4.11-26.619-4.11-26.619-4.113-.32-.162c-46.348-46.254-92.66-92.48-138.974-138.708l-18.077-18.042z"/><path fill="url(#a)" stroke="url(#a)" d="M1036.53 550.66l.09-.572-9.39-1.452-21.748-3.359c-9.554-1.474-19.107-2.948-28.659-4.424l-26.62-4.114-26.618-4.11-26.62-4.112-26.433-4.082-7.844-7.828c-38.125-38.056-76.254-76.11-114.382-114.164l-19.064-19.026-19.062-19.029-19.065-19.028-17.807-17.774 5.261.812 26.62 4.11 26.621 4.113c32.213 4.974 64.42 9.95 96.627 14.924l17.15 2.647 26.62 4.113 26.62 4.11 26.617 4.113 26.62 4.11 26.621 4.113 4.717.727 26.62 4.11 26.62 4.112 26.618 4.111 26.619 4.113 26.62 4.11 26.62 4.112 26.616 4.11 39.03 6.028 26.63 4.112 1.852.286 26.618 4.112 14.08 2.175c13.673 2.11 24.776 3.49 37.686 6.24a274.695 274.695 0 0 1 21.396 5.455c22.3 6.676 44.043 16.212 62.592 30.144 5.175 3.891 8.463 6.8 13.083 11.296 1.945 1.893 3.879 3.8 5.696 5.815 9.575 10.605 16.557 23.524 18.016 37.335.231 2.154.208 4.33.312 6.494-.428 5.896-.277 7.306-1.736 13.106-4.319 17.27-15.793 31.92-29.35 43.794-14.416 12.62-31.262 22.261-48.64 29.756-9.784 4.218-10.19 4.098-20.552 7.546-29.57 9.83-59.187 19.689-88.734 29.521-41.357 13.761-82.76 27.533-124.103 41.29l-4.79 1.591-51.115 17.009-25.559 8.503c-80.537 26.782-160.964 53.55-241.431 80.323l-112.674 37.486-11.118 3.698c-47.614 15.845-95.277 31.699-142.99 47.573l-5.117-5.107-19.065-19.026-38.127-38.057-19.065-19.026-19.062-19.029-19.065-19.025-19.062-19.028-6.407-6.394c-22.193-22.153-44.388-44.304-66.582-66.456l-19.062-19.029c-25.42-25.368-50.838-50.738-76.256-76.108l-19.062-19.028-19.065-19.026-19.062-19.029-19.066-19.026-19.06-19.027-38.13-38.054-19.063-19.029-19.065-19.026-19.062-19.028c-6.348-6.336-12.873-12.5-19.046-19.007-5.21-5.492-9.281-10.79-12.369-17.718-1.296-2.908-1.973-6.054-2.96-9.081l-.893-9.1c1.019-8.22.619-10.148 4.196-17.843 6.223-13.38 18.148-23.747 31.037-31.247 3.945-2.296 8.133-4.146 12.199-6.219l13.885-5.358 1.463-.486c9.68-3.223 19.352-6.44 29.023-9.656l11.108-3.698 11.882-3.95 12.263-4.08c14.955-4.977 29.91-9.951 44.866-14.927l5.22 5.212 156.888 156.587 4.436 4.43 19.065 19.027 19.064 19.028 76.254 76.108 19.062 19.029 19.066 19.026L511.2 573.49l19.064 19.026 19.062 19.029 19.065 19.025 19.064 19.028 19.063 19.029 19.064 19.026.592.14 22.782-7.58c129.082-42.942 258.025-85.864 387.757-129.005l-.182-.55zm-237.947-37.338l-20.373-3.145-26.62-4.112-26.62-4.11-26.617-4.113-26.62-4.11c-9.732-1.506-19.463-3.006-29.196-4.508l-26.62-4.114-23.784-3.673-53.24-8.22-26.62-4.112-26.618-4.111-26.434-4.084-12.047-11.9-19.16-18.928-19.161-18.932-19.162-18.929c-12.773-12.62-25.547-25.238-38.32-37.856l-19.16-18.933-38.323-37.858-19.16-18.927-38.32-37.861-18.49-18.266 12.858-4.278 178.903-59.52 25.22-8.392 6.002 5.993 19.064 19.025 19.063 19.029c7.008 6.99 14.01 13.984 21.015 20.976l19.065 19.026 19.062 19.028 19.064 19.026 19.065 19.029c12.58 12.558 25.162 25.115 37.744 37.673l19.065 19.026 19.062 19.029 19.065 19.028 52.349 52.249 19.062 19.028 19.064 19.025 19.063 19.028 17.81 17.774zm464.796-201.043c-.127 6.42-.116 6.45-1.273 12.796l-2.154 5.908-.324.694-.938 2.022-1.47 3.143c-5.836 12.562-11.671 25.128-17.518 37.698l-2.501 5.387-2.06 4.43-26.55-4.098-26.618-4.113-26.623-4.11-26.617-4.112-26.62-4.11-26.621-4.113-26.433-4.081-4.515-4.508c-12.71-12.684-25.419-25.369-38.127-38.054l-19.062-19.028-19.066-19.025-19.064-19.029-76.254-76.109-19.062-19.028-19.064-19.025-19.063-19.029-19.064-19.026-19.066-19.028-19.06-19.026L740.19 47.34l7.836-2.608 102.226-34.01c2.42-.75 4.825-1.55 7.263-2.249 14.964-4.285 30.557-6.63 46.168-7.206C924.382.502 945.226 2.49 965.765 8.4c16.883 4.858 33.198 12.33 46.043 23.862 1.426 1.28 2.757 2.667 4.134 4l3.989 3.983c32.525 32.46 64.968 64.843 97.452 97.265l6.063 6.05 19.062 19.028 4.655 4.642 19.064 19.03 1.83 1.832 19.069 19.027c9.227 9.214 18.467 18.43 27.706 27.656 4.643 4.63 8.255 8.186 13.014 13.33 5.245 5.68 10.35 11.666 14.994 17.86 5.777 7.717 10.999 15.877 14.843 24.588 2.975 6.72 2.998 7.892 4.816 14.816l.88 6.91zm-286.27 32.227l-22.946-3.542c-17.746-2.743-35.493-5.483-53.239-8.224l-26.62-4.11-26.62-4.112-26.62-4.11-26.62-4.113-23.784-3.674-26.62-4.11-26.62-4.113-53.238-8.22-26.432-4.083-5.394-5.382c-44.481-44.398-88.963-88.795-133.445-133.191l-18.406-18.371 10.36-3.514 25.508-8.656 76.52-25.961 25.508-8.656 25.508-8.654 25.505-8.654 25.167-8.541 6 5.991 19.065 19.026 19.062 19.029 2.634 2.626 19.065 19.028 19.062 19.028 19.064 19.027 19.063 19.028 19.065 19.026 19.061 19.028 8.262 8.245 38.127 38.053 19.062 19.028 19.065 19.027 19.062 19.028 17.81 17.773z"/></g></svg>