<svg xmlns="http://www.w3.org/2000/svg" width="180" height="180" viewBox="0 0 180 180" fill="#CBC9D0"><path fill-rule="nonzero" d="M90.332 33.422c-31.9 0-58 26.1-58 58 0 25.738 16.675 47.488 39.513 55.1 2.9.363 3.987-1.087 3.987-2.9v-9.787c-16.312 3.625-19.575-7.613-19.575-7.613-2.537-6.525-6.525-8.337-6.525-8.337-5.437-3.625.363-3.625.363-3.625 5.8.362 9.062 5.8 9.062 5.8 5.075 8.7 13.413 6.162 17.038 4.712.362-3.625 2.175-6.162 3.625-7.612-13.05-1.45-26.463-6.525-26.463-28.638 0-6.162 2.175-11.6 5.8-15.587-.725-1.45-2.537-7.25.725-15.225 0 0 4.713-1.45 15.95 5.8 4.713-1.45 9.425-1.813 14.5-1.813 5.075 0 9.788.725 14.5 1.813 11.238-7.613 15.95-6.163 15.95-6.163 3.263 7.975 1.088 13.775.725 15.225 3.625 3.988 5.8 9.063 5.8 15.588 0 22.112-13.412 27.187-26.462 28.637 2.175 1.813 3.987 5.438 3.987 10.875v15.95c0 1.45 1.088 3.263 3.988 2.9 22.837-7.612 39.512-29.362 39.512-55.1 0-31.9-26.1-58-58-58z"/></svg>