<svg xmlns="http://www.w3.org/2000/svg" width="180" height="180" viewBox="0 0 180 180" fill="#CBC9D0"><path fill-rule="nonzero" d="M143.562 56.34a44.065 44.065 0 0 1-12.673 3.474 22.125 22.125 0 0 0 9.702-12.204 44.09 44.09 0 0 1-14.015 5.354A22.035 22.035 0 0 0 110.469 46c-12.182 0-22.062 9.874-22.062 22.06 0 1.727.194 3.411.568 5.029-18.338-.922-34.597-9.704-45.48-23.049a21.95 21.95 0 0 0-2.988 11.092c0 7.652 3.896 14.404 9.816 18.36a21.97 21.97 0 0 1-9.996-2.759v.279c0 10.69 7.605 19.602 17.7 21.63-1.855.508-3.8.773-5.814.773a22.4 22.4 0 0 1-4.154-.389c2.808 8.762 10.957 15.14 20.61 15.32a44.274 44.274 0 0 1-27.403 9.446c-1.78 0-3.539-.106-5.266-.314 9.767 6.26 21.363 9.916 33.824 9.916 40.585 0 62.781-33.615 62.781-62.766 0-.957-.02-1.907-.067-2.854 4.324-3.127 8.057-6.999 11.024-11.435z"/></svg>
