<svg xmlns="http://www.w3.org/2000/svg" width="180" height="180" viewBox="0 0 180 180" fill="#CBC9D0"><path fill-rule="nonzero" d="M152.355 90.554c-.281-7.578-6.644-13.495-14.247-13.238-3.369.117-6.574 1.497-9.007 3.813A66.922 66.922 0 0 0 92.864 69.55L98.97 40.2l20.142 4.233c.561 5.169 5.193 8.911 10.363 8.35 5.17-.562 8.913-5.192 8.352-10.361-.561-5.17-5.193-8.911-10.364-8.35a9.316 9.316 0 0 0-7.111 4.608L97.285 34.07a2.916 2.916 0 0 0-3.486 2.222v.047l-6.948 32.65a67.426 67.426 0 0 0-36.705 11.577c-5.52-5.192-14.223-4.935-19.417.608-5.193 5.52-4.936 14.22.608 19.413 1.076 1.005 2.316 1.87 3.697 2.479a30.558 30.558 0 0 0 0 4.14c0 21.073 24.563 38.216 54.859 38.216 30.295 0 54.859-17.12 54.859-38.216.093-1.38.093-2.76 0-4.14 4.725-2.362 7.696-7.227 7.603-12.513zM58.24 99.98c0-5.193 4.234-9.426 9.427-9.426 5.194 0 9.428 4.233 9.428 9.426 0 5.192-4.234 9.425-9.428 9.425-5.217-.047-9.427-4.233-9.427-9.425zm54.671 25.867c-6.69 5.029-14.878 7.601-23.253 7.25-8.375.351-16.563-2.221-23.254-7.25-.889-1.076-.725-2.69.35-3.578.937-.772 2.27-.772 3.23 0a30.75 30.75 0 0 0 19.58 5.917 30.981 30.981 0 0 0 19.674-5.73c1.03-1.006 2.714-.982 3.72.047 1.006 1.029.983 2.713-.047 3.718v-.374zm-1.684-16.114c-5.193 0-9.428-4.234-9.428-9.426s4.235-9.425 9.428-9.425c5.193 0 9.428 4.233 9.428 9.425.21 5.192-3.837 9.566-9.03 9.776h-.468l.07-.35z"/></svg>