<svg xmlns="http://www.w3.org/2000/svg" width="180" height="180" viewBox="0 0 180 180" fill="#CBC9D0"><g fill-rule="nonzero"><path d="M79.944 81.463a6.189 6.189 0 0 0 0 12.333 6.189 6.189 0 0 0 0-12.333zm20.278 0a6.189 6.189 0 1 0 5.667 6.167 5.926 5.926 0 0 0-5.667-6.167z"/><path d="M127.222 34.852H52.778a10.74 10.74 0 0 0-10.926 11.111v75.926A10.902 10.902 0 0 0 52.963 133h62.963l-3.093-10.426 7.111 6.611 6.723 6.222 11.481 10.556v-100a10.74 10.74 0 0 0-10.926-11.111zm-21.444 72.555s-2-2.388-3.667-4.5a17.53 17.53 0 0 0 10.056-6.61 31.79 31.79 0 0 1-6.39 3.277 36.567 36.567 0 0 1-8.055 2.389 38.919 38.919 0 0 1-14.389-.056 46.635 46.635 0 0 1-8.166-2.388 33.233 33.233 0 0 1-6.334-3.278 17.278 17.278 0 0 0 9.723 6.555c-1.667 2.111-3.723 4.611-3.723 4.611-12.277-.388-16.944-8.444-16.944-8.444a74.398 74.398 0 0 1 8-32.389A27.472 27.472 0 0 1 81.5 60.741l.556.666c-10 2.89-14.612 7.278-14.612 7.278s1.223-.666 3.278-1.61a41.72 41.72 0 0 1 12.611-3.5c.311-.065.627-.102.945-.112a47.007 47.007 0 0 1 11.222-.111 45.287 45.287 0 0 1 16.722 5.333A36.974 36.974 0 0 0 98.39 61.63l.778-.89a27.472 27.472 0 0 1 15.61 5.834 74.398 74.398 0 0 1 8 32.389s-4.721 8.056-17 8.444z"/></g></svg>