<svg xmlns="http://www.w3.org/2000/svg" width="180" height="180" viewBox="0 0 180 180" fill="#CBC9D0"><path fill-rule="nonzero" d="M36.942 88.32L62.27 97.86l9.804 31.823c.627 2.038 3.096 2.791 4.735 1.439l14.12-11.617a4.182 4.182 0 0 1 5.134-.145l25.466 18.66c1.753 1.287 4.237.317 4.677-1.821l18.655-90.568c.48-2.336-1.794-4.285-3.998-3.425L36.912 82.682c-2.565.999-2.543 4.664.03 5.637zm34.036 5.006l49.516-30.886c.89-.554 1.806.665 1.041 1.383L80.67 102.294a8.616 8.616 0 0 0-2.625 5.134l-1.392 10.447c-.185 1.395-2.12 1.534-2.5.184L68.8 99.007a5.079 5.079 0 0 1 2.178-5.68z"/></svg>